<svg xmlns="http://www.w3.org/2000/svg" viewBox="0 0 512 512">
  <!-- Sfondo circolare con gradiente -->
  <circle cx="256" cy="256" r="256" fill="url(#grad1)"/>
  
  <!-- Definizione gradiente -->
  <defs>
    <linearGradient id="grad1" x1="0%" y1="0%" x2="100%" y2="100%">
      <stop offset="0%" style="stop-color:#4361ee;stop-opacity:1" />
      <stop offset="100%" style="stop-color:#3f37c9;stop-opacity:1" />
    </linearGradient>
  </defs>
  
  <!-- Documento / Grafico -->
  <g fill="white" transform="translate(128, 100)">
    <!-- Documento base -->
    <path d="M224 0H50C22.4 0 0 22.4 0 50v340c0 27.6 22.4 50 50 50h174c27.6 0 50-22.4 50-50V50c0-27.6-22.4-50-50-50z" opacity="0.9"/>
    
    <!-- Linee del documento -->
    <rect x="40" y="80" width="194" height="10" rx="5" opacity="0.6"/>
    <rect x="40" y="110" width="160" height="10" rx="5" opacity="0.6"/>
    <rect x="40" y="140" width="194" height="10" rx="5" opacity="0.6"/>
    <rect x="40" y="170" width="130" height="10" rx="5" opacity="0.6"/>
    
    <!-- Grafico a barre -->
    <rect x="40" y="210" width="30" height="100" rx="4" fill="#4cc9f0"/>
    <rect x="80" y="230" width="30" height="80" rx="4" fill="#4cc9f0"/>
    <rect x="120" y="190" width="30" height="120" rx="4" fill="#4cc9f0"/>
    <rect x="160" y="250" width="30" height="60" rx="4" fill="#4cc9f0"/>
    <rect x="200" y="210" width="30" height="100" rx="4" fill="#4cc9f0"/>
    
    <!-- Linea base del grafico -->
    <rect x="40" y="310" width="190" height="4" rx="2" opacity="0.8"/>
  </g>
  
  <!-- Simbolo di scambio dati -->
  <g fill="white" transform="translate(256, 256)">
    <path d="M-60,-15 L-30,-15 L-30,-45 L0,-15 L-30,15 L-30,-15 Z" fill="#f72585" transform="rotate(0)"/>
    <path d="M-60,-15 L-30,-15 L-30,-45 L0,-15 L-30,15 L-30,-15 Z" fill="#f72585" transform="rotate(180)"/>
  </g>
</svg>